Coordinates
version=1
nRows=17
nColumns=34
inDegrees=yes

Units are S.I. units (second, meters, Newtons, ...)
If the header above contains a line with 'inDegrees', this indicates whether rotational values are in degrees (yes) or radians (no).

endheader
time	pelvis_tilt	pelvis_list	pelvis_rotation	pelvis_tx	pelvis_ty	pelvis_tz	hip_flexion_r	hip_adduction_r	hip_rotation_r	knee_angle_r	ankle_angle_r	subtalar_angle_r	mtp_angle_r	hip_flexion_l	hip_adduction_l	hip_rotation_l	knee_angle_l	ankle_angle_l	subtalar_angle_l	mtp_angle_l	lumbar_extension	lumbar_bending	lumbar_rotation	arm_flex_r	arm_add_r	arm_rot_r	elbow_flex_r	pro_sup_r	arm_flex_l	arm_add_l	arm_rot_l	elbow_flex_l	pro_sup_l
      2.13333330	     -1.79114119	      2.64132076	     -3.62472142	      1.80294715	      0.88813723	     -0.16863044	     -0.36290767	     -6.81765410	      0.63661074	      0.00000000	     -0.44227711	    -23.80776441	      0.00000000	     -0.58715512	     -0.54411584	     -7.31844739	      0.68045348	      1.25085965	     -7.44700357	      0.00000000	    -11.25443318	     -1.53762668	     -1.28512942	     18.94838833	      0.87889235	     34.89932701	     89.74798407	     91.28464811	     19.36009120	     -2.42862731	     26.27669354	     84.77860554	     76.84009730
      2.15000000	     -1.83021260	      2.67124356	     -3.71290698	      1.80327461	      0.88860644	     -0.16835686	     -0.34234929	     -6.83324511	      0.86703991	      0.00000000	     -0.15332524	    -23.92216354	      0.00000000	     -0.57656874	     -0.51726411	     -7.10312785	      0.74743143	      1.65866450	     -7.56802711	      0.00000000	    -11.08872487	     -1.56476267	     -1.32424677	     18.64226680	      0.94663679	     34.65039181	     89.76505388	     91.28227929	     19.14026369	     -2.58875034	     26.57686994	     84.94335240	     76.87972441
      2.16666670	     -1.83276433	      2.67407264	     -3.71594949	      1.80322798	      0.88927016	     -0.16832500	     -0.34181136	     -6.83038814	      0.86603991	      0.00000000	     -0.15335449	    -23.92265525	      0.00000000	     -0.57561666	     -0.51718601	     -7.10260869	      0.74745121	      1.65845529	     -7.56783739	      0.00000000	    -11.08968440	     -1.56483469	     -1.32487821	     18.64129877	      0.94590096	     34.64981493	     89.76476542	     91.28227451	     19.13954595	     -2.58901019	     26.57750561	     84.94326638	     76.87979759
      2.18333330	     -1.83430708	      2.67794283	     -3.83346314	      1.80301631	      0.88958276	     -0.16809898	     -0.28264469	     -6.78960640	      0.82101392	      0.00000000	     -0.15729850	    -23.94082395	      0.00000000	     -0.57162451	     -0.51720703	     -7.08464735	      0.75948255	      1.64828140	     -7.55871419	      0.00000000	    -11.15736715	     -1.57043464	     -1.35865026	     18.58941449	      0.90223414	     34.63319862	     89.74210877	     91.28204767	     19.09470530	     -2.59908399	     26.60486688	     84.92841866	     76.88219586
      2.20000000	     -1.83151995	      2.68174161	     -3.83631263	      1.80316320	      0.88942194	     -0.16831740	     -0.28043878	     -6.78825518	      0.81984760	      0.00000000	     -0.15761037	    -23.94123177	      0.00000000	     -0.57059937	     -0.52080606	     -7.08457284	      0.75894861	      1.64808821	     -7.55872262	      0.00000000	    -11.15947572	     -1.57082096	     -1.35924589	     18.58794843	      0.90095013	     34.63276720	     89.74130944	     91.28204356	     19.09312754	     -2.59958036	     26.60569346	     84.92786369	     76.88226930
      2.21666670	     -1.84382282	      2.65725633	     -3.99927750	      1.80314480	      0.88909401	     -0.16848996	     -0.20497059	     -6.76863641	      0.73546293	      0.00000000	     -0.17328462	    -23.97232191	      0.00000000	     -0.57984689	     -0.53886666	     -7.08687646	      0.76421056	      1.64426321	     -7.56705031	      0.00000000	    -11.27288506	     -1.56393242	     -1.42889124	     18.48647695	      0.79575718	     34.60589150	     89.68891194	     91.28172402	     18.98633958	     -2.60785731	     26.66747206	     84.89109469	     76.88721004
      2.23333330	     -1.84451196	      2.65566580	     -3.99961500	      1.80304930	      0.88897731	     -0.16844543	     -0.20570961	     -6.76924734	      0.73476359	      0.00000000	     -0.17360352	    -23.97249131	      0.00000000	     -0.57987572	     -0.53863552	     -7.08735699	      0.76405444	      1.64432103	     -7.56740202	      0.00000000	    -11.27358662	     -1.56372683	     -1.42927645	     18.48540392	      0.79474408	     34.60567399	     89.68831684	     91.28172981	     18.98482618	     -2.60791081	     26.66833483	     84.89065738	     76.88728445
      2.25000000	     -1.82659370	      2.60937112	     -4.03032923	      1.80301228	      0.88904793	     -0.16835929	     -0.20485139	     -6.72919014	      0.61166105	      0.00000000	     -0.25216106	    -23.99538635	      0.00000000	     -0.58426127	     -0.58334224	     -7.19310763	      0.78548372	      1.64331321	     -7.65308351	      0.00000000	    -11.37515862	     -1.50698839	     -1.49862364	     18.28814959	      0.61939278	     34.57060199	     89.55348373	     91.28453150	     18.67182762	     -2.58936593	     26.89660912	     84.79484188	     76.90767881
      2.26666670	     -1.82374897	      2.60931742	     -4.03354366	      1.80310094	      0.88890019	     -0.16833985	     -0.20412739	     -6.73001176	      0.61086439	      0.00000000	     -0.25240380	    -23.99558558	      0.00000000	     -0.58275884	     -0.58438605	     -7.19252077	      0.78546471	      1.64305983	     -7.65297441	      0.00000000	    -11.37544419	     -1.50622846	     -1.49972277	     18.28733061	      0.61874545	     34.57042461	     89.55278580	     91.28455338	     18.67126404	     -2.58881375	     26.89798184	     84.79441235	     76.90781269
      2.28333330	     -1.82006789	      2.60357364	     -4.17207213	      1.80329891	      0.88851630	     -0.16848763	     -0.16658270	     -6.74479770	      0.57786955	      0.00000000	     -0.26045772	    -24.00525249	      0.00000000	     -0.58987495	     -0.58542516	     -7.16994612	      0.82851181	      1.63382652	     -7.65057869	      0.00000000	    -11.42190458	     -1.46570911	     -1.56063190	     18.23208087	      0.57020725	     34.56518168	     89.51148127	     91.28552425	     18.60237180	     -2.56156916	     26.97712693	     84.76217591	     76.91434039
      2.30000000	     -1.83083754	      2.59881974	     -4.18154581	      1.80354929	      0.88826995	     -0.16865636	     -0.16524989	     -6.76908511	      0.56372026	      0.00000000	     -0.29261707	    -23.99846121	      0.00000000	     -0.56179617	     -0.57873988	     -7.17971279	      0.86822993	      1.64105520	     -7.68522985	      0.00000000	    -11.52069775	     -1.38516373	     -1.59816694	     18.13955689	      0.46658443	     34.56043908	     89.41216174	     91.28838118	     18.36618338	     -2.54300041	     27.17063896	     84.67342304	     76.93076481
      2.31666670	     -1.83287070	      2.59408756	     -4.18271345	      1.80362023	      0.88841889	     -0.16839994	     -0.16754621	     -6.77351556	      0.56326901	      0.00000000	     -0.29281632	    -23.99856609	      0.00000000	     -0.56079949	     -0.57865124	     -7.17940613	      0.86843088	      1.64119492	     -7.68550610	      0.00000000	    -11.52038793	     -1.38429539	     -1.59873826	     18.13931906	      0.46559564	     34.56021489	     89.41146496	     91.28840457	     18.36491980	     -2.54270884	     27.17228168	     84.67288444	     76.93092630
      2.33333330	     -2.07872053	      2.57409143	     -4.19281992	      1.80409639	      0.88841149	     -0.16782943	      0.05917712	     -6.73565258	      0.47496713	      0.00000000	     -0.33863153	    -23.93937118	      0.00000000	     -0.28779614	     -0.63704900	     -6.93393724	      1.00242347	      1.64660161	     -8.05217044	      0.00000000	    -10.98267917	     -1.24049732	     -1.42000252	     18.01042300	      0.27410501	     34.53790315	     88.53044208	     91.34463195	     18.36884957	     -2.84271313	     28.67892320	     84.03537208	     77.15463304
      2.35000000	     -2.10313178	      2.59370959	     -4.23513972	      1.80372498	      0.88851789	     -0.16694798	      0.08642449	     -6.72684296	      0.46216611	      0.00000000	     -0.32299029	    -23.95143134	      0.00000000	     -0.28797885	     -0.64689659	     -6.94521195	      1.00196340	      1.64628451	     -8.06699019	      0.00000000	    -11.05294939	     -1.25847126	     -1.44637495	     17.99719140	      0.20339073	     34.50547237	     88.51196787	     91.34467154	     18.29691367	     -2.85311019	     28.70713424	     83.99534255	     77.15913370
      2.36666670	     -2.13331888	      2.60855490	     -4.23817474	      1.80320275	      0.88829079	     -0.16646353	      0.12200812	     -6.70851175	      0.46388109	      0.00000000	     -0.29435823	    -23.96198636	      0.00000000	     -0.26949418	     -0.65752525	     -6.96235316	      0.98120945	      1.64968768	     -8.09383902	      0.00000000	    -11.15396635	     -1.27397517	     -1.43314221	     18.01138118	      0.09329761	     34.44217975	     88.46417124	     91.34383851	     18.17565460	     -2.90493960	     28.74781987	     83.93464226	     77.16677533
      2.38333330	     -2.16201540	      2.61786129	     -4.28046229	      1.80273070	      0.88775768	     -0.16634948	      0.17688163	     -6.68251524	      0.47198156	      0.00000000	     -0.25523671	    -23.97283002	      0.00000000	     -0.25633468	     -0.67500912	     -6.96360681	      0.95712806	      1.65038525	     -8.11645809	      0.00000000	    -11.23064598	     -1.26983585	     -1.41670201	     18.05173686	     -0.01619804	     34.36178931	     88.39859791	     91.34250618	     18.09003215	     -2.96136906	     28.79274548	     83.88344058	     77.17696058
      2.40000000	     -2.16180934	      2.62883344	     -4.28064664	      1.80260338	      0.88733074	     -0.16657931	      0.17760875	     -6.67670722	      0.47237693	      0.00000000	     -0.25486815	    -23.97272101	      0.00000000	     -0.25762720	     -0.67887684	     -6.96379465	      0.95686769	      1.65044097	     -8.11679080	      0.00000000	    -11.23170876	     -1.26945893	     -1.41634705	     18.05208447	     -0.01740199	     34.36090322	     88.39762480	     91.34249331	     18.08892126	     -2.96199544	     28.79342862	     83.88288579	     77.17710129
